<?xml version="1.0" standalone="no"?>
<!DOCTYPE svg PUBLIC "-//W3C//DTD SVG 20010904//EN"
 "http://www.w3.org/TR/2001/REC-SVG-20010904/DTD/svg10.dtd">
<svg version="1.0" xmlns="http://www.w3.org/2000/svg"
 width="1000.000000pt" height="1000.000000pt" viewBox="0 0 1000.000000 1000.000000"
 preserveAspectRatio="xMidYMid meet">
<metadata>
Created by potrace 1.11, written by Peter Selinger 2001-2013
</metadata>
<g transform="translate(0.000000,1000.000000) scale(0.100000,-0.100000)"
fill="#000000" stroke="none">
<path d="M4830 9810 c-182 -19 -337 -63 -482 -135 -362 -180 -604 -482 -664
-829 -22 -121 -14 -336 15 -455 58 -230 211 -450 430 -614 164 -124 339 -203
551 -248 138 -30 453 -33 596 -6 275 51 499 166 699 359 207 199 308 399 336
668 33 314 -64 601 -283 835 -202 216 -467 359 -760 409 -112 20 -328 27 -438
16z"/>
<path d="M611 7664 c-260 -70 -435 -322 -393 -566 17 -99 62 -178 152 -269
119 -120 184 -148 500 -210 1068 -210 2178 -398 2744 -465 l59 -7 -7 -351
c-23 -1227 -99 -1971 -306 -3006 -65 -328 -109 -489 -177 -660 -62 -156 -210
-489 -333 -750 -113 -240 -130 -292 -130 -397 0 -102 15 -165 66 -271 62 -129
137 -204 266 -266 218 -104 448 -103 663 4 189 94 247 167 378 471 356 833
589 1562 687 2149 11 69 23 137 26 153 l6 27 182 0 183 0 12 -87 c41 -291 153
-740 288 -1158 137 -421 451 -1206 535 -1338 50 -78 151 -162 259 -217 132
-65 219 -84 368 -78 193 8 347 73 461 195 121 128 183 318 161 486 -10 70 -26
112 -136 348 -355 761 -400 887 -500 1384 -202 1012 -286 1820 -302 2931 l-6
431 59 7 c438 52 1324 197 2169 356 773 146 876 168 944 201 93 46 178 135
231 242 40 80 43 94 48 185 5 108 -9 174 -55 267 -35 69 -144 173 -223 213
-163 82 -261 83 -634 7 -1476 -302 -2662 -469 -3586 -505 -914 -36 -2244 123
-4044 485 -403 81 -499 90 -615 59z"/>
</g>
</svg>
